<svg width="219" height="79" viewBox="0 0 219 79" fill="none" xmlns="http://www.w3.org/2000/svg">
<path d="M38.7938 20.3986C39.5796 20.0088 40.1426 20.0732 40.4752 20.2415C40.8078 20.4097 41.1936 20.8256 41.345 21.6897C41.4964 22.5544 41.3617 23.7051 40.7711 24.8724C40.1804 26.0398 39.3333 26.8298 38.5469 27.2199C37.7609 27.6098 37.1977 27.5445 36.8651 27.3763C36.5326 27.208 36.1467 26.7928 35.9953 25.9288C35.8438 25.0642 35.9782 23.9135 36.5688 22.7461C37.1595 21.5786 38.0074 20.7888 38.7938 20.3986Z" fill="#8BC0C3"/>
<path fill-rule="evenodd" clip-rule="evenodd" d="M55.5926 0V20.8378C55.4821 20.9742 55.384 21.1243 55.3016 21.2873L54.7272 22.422C53.4325 22.3489 52.1529 22.6647 51.0278 23.2229C49.1807 24.1393 47.5879 25.7609 46.5564 27.7996C45.5251 29.8381 45.1623 32.0814 45.518 34.1123C45.8739 36.1438 47.0002 38.1259 49.064 39.1702C51.1277 40.2144 53.3919 39.9476 55.2395 39.031C57.0865 38.1146 58.679 36.4933 59.7104 34.4547C60.7419 32.4161 61.1047 30.1725 60.7489 28.1416C60.5321 26.9045 60.0289 25.6865 59.2031 24.6867L59.6386 23.8254H79V55.1746H60.5015C61.9149 54.2235 63.1225 52.8433 63.9601 51.1878C64.9916 49.1491 65.3544 46.9056 64.9986 44.8747C64.7818 43.6375 64.2787 42.4191 63.4528 41.4193L64.0271 40.2845C64.6524 39.0487 64.1572 37.5398 62.9213 36.9145C61.6855 36.2894 60.1766 36.7841 59.5512 38.0199L58.9773 39.1551C57.6826 39.0819 56.4027 39.3977 55.2775 39.956C53.4304 40.8723 51.838 42.494 50.8065 44.5326C49.775 46.5713 49.4119 48.8148 49.7677 50.8457C50.1236 52.8772 51.25 54.859 53.3137 55.9032C54.0569 56.2793 54.8262 56.4846 55.5926 56.5514V79H24.2434V60.517C25.3728 60.6575 26.5208 60.6243 27.6465 60.4129L27.7412 60.397C28.2156 60.3288 28.6987 60.4082 29.1254 60.624C29.5805 60.8543 29.9486 61.2285 30.172 61.6906C30.9158 63.2368 32.0087 64.5883 33.3653 65.6382C34.7233 66.6895 36.3077 67.4097 37.9925 67.7408V67.7396C39.6448 68.0934 41.3591 68.0327 42.9827 67.5616C44.5214 67.115 45.933 66.3138 47.1054 65.2247L47.3369 65.0031L47.3667 64.9733C48.9581 63.3461 49.9461 61.2254 50.1698 58.9647L50.1889 58.7451C50.3685 56.4023 49.7174 54.0708 48.3464 52.1634L48.3431 52.1593C48.137 51.8737 48.0017 51.5407 47.9496 51.1882C47.8979 50.8364 47.9309 50.4766 48.0467 50.1387H48.0459C48.6434 48.476 48.8558 46.6991 48.6643 44.9428C48.4712 43.1715 47.8734 41.4682 46.916 39.9662C45.6873 38.0134 43.9516 36.4314 41.8932 35.3899C39.8348 34.3484 37.532 33.8874 35.2307 34.0543C33.5645 34.1654 31.9432 34.6353 30.4769 35.4299L30.1859 35.5932C28.6576 36.4791 27.3513 37.7023 26.3656 39.1685L26.286 39.2763C26.0935 39.5213 25.8521 39.7236 25.577 39.8694C25.2626 40.0359 24.9142 40.1235 24.5618 40.1266L24.5569 40.127C22.2815 40.1515 20.0852 40.9553 18.3307 42.399L18.1625 42.5406C16.3815 44.0731 15.1963 46.1852 14.8162 48.5039L14.8096 48.5451C14.5612 50.2372 14.7392 51.9642 15.3276 53.5688C15.5324 54.1271 15.7859 54.6638 16.082 55.1746H0V23.8254H18.4764C17.5259 24.6838 16.71 25.7522 16.0942 26.9693C15.0627 29.008 14.7 31.2515 15.0558 33.2824C15.4117 35.3139 16.538 37.2961 18.6018 38.3403C20.6655 39.3844 22.9294 39.1177 24.7769 38.2011C26.624 37.2848 28.2163 35.6632 29.2478 33.6245C30.2793 31.5858 30.6425 29.3423 30.2867 27.3114C30.0699 26.0743 29.5667 24.8562 28.7409 23.8564L29.3148 22.7212C29.9401 21.4853 29.4453 19.9765 28.2094 19.3512C26.9735 18.7259 25.4647 19.2211 24.8393 20.457L24.265 21.5918C24.2578 21.5914 24.2506 21.5909 24.2434 21.5905V0H55.5926ZM44.2081 12.8634C42.9722 12.2382 41.4634 12.7333 40.8381 13.9692L40.2641 15.104C38.9693 15.0308 37.6895 15.347 36.5643 15.9052C34.7173 16.8216 33.1248 18.4429 32.0933 20.4815C31.0619 22.52 30.6992 24.7633 31.0549 26.7942C31.4108 28.8257 32.5367 30.8079 34.6005 31.8521C36.6643 32.8963 38.9284 32.6295 40.776 31.7129C42.623 30.7966 44.2155 29.1752 45.2469 27.1367C46.2784 25.098 46.6412 22.8544 46.2854 20.8235C46.0686 19.5864 45.5654 18.3684 44.7396 17.3686L45.3139 16.2334C45.9391 14.9975 45.4439 13.4887 44.2081 12.8634Z" fill="#8BC0C3"/>
<path d="M35.5826 39.0575C36.9812 38.9541 38.3797 39.2335 39.6286 39.8653C40.8775 40.4972 41.9309 41.4586 42.6761 42.6468C42.6794 42.6519 42.6827 42.6572 42.6859 42.6623C43.2283 43.5134 43.5685 44.4799 43.6783 45.4866C43.788 46.4932 43.6647 47.5133 43.3178 48.4672L43.3023 48.5109C42.9265 49.6062 42.8183 50.7755 42.9872 51.9209L42.9876 51.9221C43.1569 53.0669 43.5978 54.1557 44.2763 55.0954C44.9534 56.0396 45.2771 57.196 45.1878 58.3618C45.0986 59.5231 44.6044 60.6176 43.7926 61.4534C43.1732 62.06 42.4149 62.5036 41.5851 62.7445C40.7995 62.9724 39.9738 63.0122 39.1743 62.8625L38.96 62.8188C38.0404 62.6381 37.1762 62.2455 36.4357 61.6722L36.4353 61.6718C35.6946 61.0986 35.0969 60.3599 34.6903 59.5133C34.6894 59.5115 34.6887 59.5094 34.6878 59.5076C33.9864 58.0567 32.8282 56.8762 31.39 56.1486C29.9518 55.4209 28.3145 55.1868 26.7301 55.4812C26.7281 55.4815 26.726 55.4824 26.724 55.4828C25.9002 55.6379 25.0557 55.6187 24.2434 55.4301V55.1746H23.416C22.7225 54.904 22.0833 54.5066 21.5322 54.0006C21.5184 53.988 21.5045 53.9754 21.4905 53.9631C20.8374 53.3898 20.3373 52.661 20.037 51.8421C19.7396 51.0312 19.6472 50.1577 19.7688 49.2999C19.961 48.1501 20.5504 47.1031 21.4338 46.3429C22.3199 45.5804 23.4435 45.1562 24.6055 45.1425L24.8226 45.1371C25.8339 45.0979 26.8252 44.8461 27.7326 44.3995L27.9257 44.3008H27.9265C28.8856 43.7923 29.7171 43.0749 30.361 42.2031L30.4875 42.0263L30.5132 41.9888C31.0762 41.1442 31.8253 40.441 32.7016 39.9331C33.5779 39.4251 34.5576 39.1263 35.5646 39.0592C35.5706 39.0588 35.5766 39.058 35.5826 39.0575Z" fill="#8BC0C3"/>
<path d="M57.507 44.4497C58.2927 44.06 58.8557 44.1243 59.1884 44.2926C59.5209 44.4608 59.9068 44.8764 60.0582 45.7405C60.2097 46.6051 60.0754 47.756 59.4847 48.9235C58.894 50.091 58.0464 50.8809 57.2601 51.2711C56.4742 51.6609 55.9109 51.596 55.5783 51.4278C55.2456 51.2594 54.8602 50.8439 54.7089 49.9799C54.5574 49.1153 54.6913 47.9647 55.282 46.7973C55.8727 45.6297 56.7206 44.8399 57.507 44.4497Z" fill="#8BC0C3"/>
<path d="M53.2569 27.7167C54.0427 27.3268 54.606 27.3913 54.9387 27.5595C55.2712 27.7278 55.6571 28.1434 55.8085 29.0074C55.96 29.8721 55.8253 31.0231 55.2346 32.1905C54.6439 33.3578 53.7967 34.1479 53.0104 34.538C52.2244 34.9279 51.6611 34.8626 51.3286 34.6943C50.996 34.526 50.6101 34.1108 50.4588 33.2469C50.3073 32.3823 50.4417 31.2316 51.0323 30.0642C51.623 28.8968 52.4706 28.1069 53.2569 27.7167Z" fill="#8BC0C3"/>
<path d="M22.7943 26.886C23.5802 26.4961 24.1438 26.561 24.4765 26.7293C24.809 26.8976 25.1949 27.3132 25.3463 28.1771C25.4978 29.0418 25.3631 30.1927 24.7724 31.3602C24.1817 32.5276 23.3345 33.3176 22.5482 33.7077C21.7623 34.0976 21.1986 34.0328 20.866 33.8645C20.5334 33.6962 20.1475 33.2806 19.9961 32.4166C19.8447 31.552 19.9794 30.4014 20.5701 29.234C21.1608 28.0665 22.0079 27.2762 22.7943 26.886Z" fill="#8BC0C3"/>
<path d="M84.248 35V18.2H86.048C86.976 18.2 87.688 18.496 88.184 19.088C88.696 19.664 88.952 20.512 88.952 21.632V23.696C88.952 24.368 88.832 24.944 88.592 25.424C88.368 25.904 88.056 26.256 87.656 26.48C88.088 26.688 88.432 27.04 88.688 27.536C88.944 28.016 89.072 28.608 89.072 29.312V31.568C89.072 32.688 88.816 33.544 88.304 34.136C87.808 34.712 87.104 35 86.192 35H84.248ZM86.048 25.904C86.576 25.904 86.968 25.736 87.224 25.4C87.48 25.048 87.608 24.48 87.608 23.696V21.632C87.608 20.832 87.48 20.264 87.224 19.928C86.968 19.576 86.576 19.4 86.048 19.4H85.592V25.904H86.048ZM86.192 33.8C86.704 33.8 87.088 33.624 87.344 33.272C87.6 32.92 87.728 32.352 87.728 31.568V29.312C87.728 28.528 87.6 27.968 87.344 27.632C87.088 27.28 86.704 27.104 86.192 27.104H85.592V33.8H86.192ZM95.0969 35H91.2089V18.2H95.0489V19.472H92.5529V25.856H94.7609V27.128H92.5529V33.728H95.0969V35ZM98.8499 35H97.5059V19.472H95.8019V18.2H100.554V19.472H98.8499V35ZM105.878 35H101.99V18.2H105.83V19.472H103.334V25.856H105.542V27.128H103.334V33.728H105.878V35ZM107.615 35V18.2H109.487C110.399 18.2 111.103 18.496 111.599 19.088C112.111 19.664 112.367 20.512 112.367 21.632V24.776C112.367 25.912 112.111 26.768 111.599 27.344C111.103 27.92 110.399 28.208 109.487 28.208H108.959V35H107.615ZM109.487 27.008C109.999 27.008 110.383 26.84 110.639 26.504C110.895 26.152 111.023 25.576 111.023 24.776V21.632C111.023 20.832 110.895 20.264 110.639 19.928C110.383 19.576 109.999 19.4 109.487 19.4H108.959V27.008H109.487ZM114.506 35V18.2H115.85V26.6C115.85 27.832 115.786 29.696 115.658 32.192H115.706L118.49 18.2H120.026V35H118.682V26.6C118.682 25.112 118.738 23.248 118.85 21.008H118.802L116.018 35H114.506ZM123.842 35H122.498V18.2H123.842V25.832H126.098V18.2H127.442V35H126.098V27.128H123.842V35ZM130.408 35H129.088L131.296 18.2H132.976L134.968 35H133.648L133.192 30.968H130.888L130.408 35ZM131.032 29.672H133.048L132.4 23.696C132.256 22.24 132.168 21.144 132.136 20.408H132.04C132.008 21.144 131.904 22.232 131.728 23.672L131.032 29.672ZM136.631 35V18.2H138.503C139.415 18.2 140.119 18.496 140.615 19.088C141.127 19.664 141.383 20.512 141.383 21.632V24.776C141.383 25.912 141.127 26.768 140.615 27.344C140.119 27.92 139.415 28.208 138.503 28.208H137.975V35H136.631ZM138.503 27.008C139.015 27.008 139.399 26.84 139.655 26.504C139.911 26.152 140.039 25.576 140.039 24.776V21.632C140.039 20.832 139.911 20.264 139.655 19.928C139.399 19.576 139.015 19.4 138.503 19.4H137.975V27.008H138.503ZM144.865 35H143.521V18.2H144.865V25.832H147.121V18.2H148.465V35H147.121V27.128H144.865V35ZM151.431 35H150.111L152.319 18.2H153.999L155.991 35H154.671L154.215 30.968H151.911L151.431 35ZM152.055 29.672H154.071L153.423 23.696C153.279 22.24 153.191 21.144 153.159 20.408H153.063C153.031 21.144 152.927 22.232 152.751 23.672L152.055 29.672ZM161.836 18.2V35H160.492V27.872C160.06 27.872 159.74 27.864 159.532 27.848L158.092 35H156.7L158.26 27.344C157.924 27.104 157.66 26.72 157.468 26.192C157.276 25.664 157.18 25.08 157.18 24.44V21.632C157.18 20.512 157.428 19.664 157.924 19.088C158.436 18.496 159.148 18.2 160.06 18.2H161.836ZM160.492 26.648V19.4H160.06C159.548 19.4 159.164 19.576 158.908 19.928C158.652 20.264 158.524 20.832 158.524 21.632V24.44C158.524 25.24 158.644 25.808 158.884 26.144C159.14 26.48 159.532 26.648 160.06 26.648H160.492ZM169.334 35H167.99V18.2H169.334V26.024H170.174L172.118 18.2H173.438L171.374 26.48L173.654 35H172.262L170.174 27.152H169.334V35ZM173.963 35.096V33.728H174.131C174.419 33.728 174.651 33.592 174.827 33.32C175.003 33.032 175.131 32.496 175.211 31.712C175.307 30.928 175.355 29.784 175.355 28.28V18.2H179.891V35H178.547V19.496H176.699V29.36C176.699 30.896 176.611 32.08 176.435 32.912C176.259 33.728 175.987 34.296 175.619 34.616C175.267 34.936 174.771 35.096 174.131 35.096H173.963ZM182.381 35V18.2H183.725V26.6C183.725 27.832 183.661 29.696 183.533 32.192H183.581L186.365 18.2H187.901V35H186.557V26.6C186.557 25.112 186.613 23.248 186.725 21.008H186.677L183.893 35H182.381ZM191.717 35H190.373V18.2H191.717V25.832H193.973V18.2H195.317V35H193.973V27.128H191.717V35ZM197.803 35V18.2H199.147V26.6C199.147 27.832 199.083 29.696 198.955 32.192H199.003L201.787 18.2H203.323V35H201.979V26.6C201.979 25.112 202.035 23.248 202.147 21.008H202.099L199.315 35H197.803ZM207.139 35H205.795V18.2H207.139V26.024H207.979L209.923 18.2H211.243L209.179 26.48L211.459 35H210.067L207.979 27.152H207.139V35ZM213.166 35H211.846L214.054 18.2H215.734L217.726 35H216.406L215.95 30.968H213.646L213.166 35ZM213.79 29.672H215.806L215.158 23.696C215.014 22.24 214.926 21.144 214.894 20.408H214.798C214.766 21.144 214.662 22.232 214.486 23.672L213.79 29.672ZM83.096 64.376V60.728H83.528C84.264 59.288 84.632 54.736 84.632 47.072V45.2H88.928V60.728H89.84V64.376H88.496V62H84.44V64.376H83.096ZM87.584 60.728V46.472H85.952V47.216C85.952 51.024 85.848 54.072 85.64 56.36C85.432 58.648 85.168 60.104 84.848 60.728H87.584ZM93.6547 62.192C92.8547 62.192 92.2387 61.928 91.8067 61.4C91.3907 60.872 91.1827 60.08 91.1827 59.024V48.2C91.1827 47.128 91.3987 46.328 91.8307 45.8C92.2627 45.272 92.8707 45.008 93.6547 45.008C94.4387 45.008 95.0467 45.28 95.4787 45.824C95.9107 46.352 96.1267 47.144 96.1267 48.2V59.024C96.1267 60.064 95.9107 60.856 95.4787 61.4C95.0467 61.928 94.4387 62.192 93.6547 62.192ZM93.6547 60.992C94.0387 60.992 94.3187 60.848 94.4947 60.56C94.6867 60.272 94.7827 59.784 94.7827 59.096V48.104C94.7827 47.432 94.6867 46.952 94.4947 46.664C94.3027 46.36 94.0227 46.208 93.6547 46.208C93.2867 46.208 93.0067 46.36 92.8147 46.664C92.6227 46.952 92.5267 47.432 92.5267 48.104V59.096C92.5267 59.784 92.6147 60.272 92.7907 60.56C92.9827 60.848 93.2707 60.992 93.6547 60.992ZM99.842 62H98.498V45.2H99.842V53.024H100.682L102.626 45.2H103.946L101.882 53.48L104.162 62H102.77L100.682 54.152H99.842V62ZM107.639 62H106.295V46.472H104.591V45.2H109.343V46.472H107.639V62ZM112.897 62.192C112.097 62.192 111.481 61.928 111.049 61.4C110.633 60.872 110.425 60.08 110.425 59.024V48.2C110.425 47.128 110.641 46.328 111.073 45.8C111.505 45.272 112.113 45.008 112.897 45.008C113.681 45.008 114.289 45.28 114.721 45.824C115.153 46.352 115.369 47.144 115.369 48.2V59.024C115.369 60.064 115.153 60.856 114.721 61.4C114.289 61.928 113.681 62.192 112.897 62.192ZM112.897 60.992C113.281 60.992 113.561 60.848 113.737 60.56C113.929 60.272 114.025 59.784 114.025 59.096V48.104C114.025 47.432 113.929 46.952 113.737 46.664C113.545 46.36 113.265 46.208 112.897 46.208C112.529 46.208 112.249 46.36 112.057 46.664C111.865 46.952 111.769 47.432 111.769 48.104V59.096C111.769 59.784 111.857 60.272 112.033 60.56C112.225 60.848 112.513 60.992 112.897 60.992ZM117.74 62V45.2H119.612C120.524 45.2 121.228 45.496 121.724 46.088C122.236 46.664 122.492 47.512 122.492 48.632V51.776C122.492 52.912 122.236 53.768 121.724 54.344C121.228 54.92 120.524 55.208 119.612 55.208H119.084V62H117.74ZM119.612 54.008C120.124 54.008 120.508 53.84 120.764 53.504C121.02 53.152 121.148 52.576 121.148 51.776V48.632C121.148 47.832 121.02 47.264 120.764 46.928C120.508 46.576 120.124 46.4 119.612 46.4H119.084V54.008H119.612ZM124.642 62H123.322L125.53 45.2H127.21L129.202 62H127.882L127.426 57.968H125.122L124.642 62ZM125.266 56.672H127.282L126.634 50.696C126.49 49.24 126.402 48.144 126.37 47.408H126.274C126.242 48.144 126.138 49.232 125.962 50.672L125.266 56.672ZM134.076 62V45.2H135.42V53.6C135.42 54.832 135.356 56.696 135.228 59.192H135.276L138.06 45.2H139.596V62H138.252V53.6C138.252 52.112 138.308 50.248 138.42 48.008H138.372L135.588 62H134.076ZM142.068 62V45.2H143.868C144.796 45.2 145.508 45.496 146.004 46.088C146.516 46.664 146.772 47.512 146.772 48.632V50.696C146.772 51.368 146.652 51.944 146.412 52.424C146.188 52.904 145.876 53.256 145.476 53.48C145.908 53.688 146.252 54.04 146.508 54.536C146.764 55.016 146.892 55.608 146.892 56.312V58.568C146.892 59.688 146.636 60.544 146.124 61.136C145.628 61.712 144.924 62 144.012 62H142.068ZM143.868 52.904C144.396 52.904 144.788 52.736 145.044 52.4C145.3 52.048 145.428 51.48 145.428 50.696V48.632C145.428 47.832 145.3 47.264 145.044 46.928C144.788 46.576 144.396 46.4 143.868 46.4H143.412V52.904H143.868ZM144.012 60.8C144.524 60.8 144.908 60.624 145.164 60.272C145.42 59.92 145.548 59.352 145.548 58.568V56.312C145.548 55.528 145.42 54.968 145.164 54.632C144.908 54.28 144.524 54.104 144.012 54.104H143.412V60.8H144.012ZM149.275 62H147.955L150.163 45.2H151.843L153.835 62H152.515L152.059 57.968H149.755L149.275 62ZM149.899 56.672H151.915L151.267 50.696C151.123 49.24 151.035 48.144 151.003 47.408H150.907C150.875 48.144 150.771 49.232 150.595 50.672L149.899 56.672ZM156.842 62H155.498V45.2H156.842V52.832H159.098V45.2H160.442V62H159.098V54.128H156.842V62ZM165.28 62.192C164.48 62.192 163.864 61.928 163.432 61.4C163.016 60.872 162.808 60.08 162.808 59.024V48.2C162.808 47.128 163.024 46.328 163.456 45.8C163.888 45.272 164.496 45.008 165.28 45.008C166.064 45.008 166.672 45.28 167.104 45.824C167.536 46.352 167.752 47.144 167.752 48.2V59.024C167.752 60.064 167.536 60.856 167.104 61.4C166.672 61.928 166.064 62.192 165.28 62.192ZM165.28 60.992C165.664 60.992 165.944 60.848 166.12 60.56C166.312 60.272 166.408 59.784 166.408 59.096V48.104C166.408 47.432 166.312 46.952 166.12 46.664C165.928 46.36 165.648 46.208 165.28 46.208C164.912 46.208 164.632 46.36 164.44 46.664C164.248 46.952 164.152 47.432 164.152 48.104V59.096C164.152 59.784 164.24 60.272 164.416 60.56C164.608 60.848 164.896 60.992 165.28 60.992ZM170.123 62V45.2H171.923C172.851 45.2 173.563 45.496 174.059 46.088C174.571 46.664 174.827 47.512 174.827 48.632V50.696C174.827 51.368 174.707 51.944 174.467 52.424C174.243 52.904 173.931 53.256 173.531 53.48C173.963 53.688 174.307 54.04 174.563 54.536C174.819 55.016 174.947 55.608 174.947 56.312V58.568C174.947 59.688 174.691 60.544 174.179 61.136C173.683 61.712 172.979 62 172.067 62H170.123ZM171.923 52.904C172.451 52.904 172.843 52.736 173.099 52.4C173.355 52.048 173.483 51.48 173.483 50.696V48.632C173.483 47.832 173.355 47.264 173.099 46.928C172.843 46.576 172.451 46.4 171.923 46.4H171.467V52.904H171.923ZM172.067 60.8C172.579 60.8 172.963 60.624 173.219 60.272C173.475 59.92 173.603 59.352 173.603 58.568V56.312C173.603 55.528 173.475 54.968 173.219 54.632C172.963 54.28 172.579 54.104 172.067 54.104H171.467V60.8H172.067ZM177.33 62H176.01L178.218 45.2H179.898L181.89 62H180.57L180.114 57.968H177.81L177.33 62ZM177.954 56.672H179.97L179.322 50.696C179.178 49.24 179.09 48.144 179.058 47.408H178.962C178.93 48.144 178.826 49.232 178.65 50.672L177.954 56.672Z" fill="#39595B"/>
</svg>
