<svg width="194" height="55" viewBox="0 0 194 55" fill="none" xmlns="http://www.w3.org/2000/svg">
<path d="M27.0084 14.2016C27.5554 13.9302 27.9474 13.975 28.1789 14.0922C28.4105 14.2093 28.6791 14.4988 28.7845 15.1004C28.8899 15.7025 28.7961 16.5035 28.385 17.3162C27.9737 18.1289 27.3839 18.679 26.8364 18.9506C26.2893 19.222 25.8971 19.1766 25.6656 19.0594C25.4341 18.9423 25.1654 18.6532 25.06 18.0517C24.9546 17.4497 25.0481 16.6486 25.4593 15.8359C25.8705 15.0231 26.4608 14.4732 27.0084 14.2016Z" fill="#39595B"/>
<path fill-rule="evenodd" clip-rule="evenodd" d="M38.7037 0V14.5074C38.6267 14.6023 38.5585 14.7068 38.5011 14.8202L38.1012 15.6103C37.1998 15.5593 36.309 15.7792 35.5257 16.1678C34.2397 16.8058 33.1308 17.9348 32.4127 19.3541C31.6947 20.7733 31.4421 22.3352 31.6897 23.749C31.9375 25.1634 32.7216 26.5434 34.1585 27.2704C35.5953 27.9974 37.1716 27.8116 38.4579 27.1735C39.7437 26.5355 40.8524 25.4067 41.5706 23.9875C42.2887 22.5682 42.5413 21.0062 42.2935 19.5923C42.1426 18.731 41.7923 17.883 41.2173 17.1869L41.5205 16.5873H55V38.4127H42.1213C43.1053 37.7506 43.9461 36.7896 44.5292 35.6371C45.2473 34.2177 45.4999 32.6558 45.2522 31.2419C45.1012 30.3805 44.751 29.5323 44.176 28.8362L44.5758 28.0462C45.0111 27.1858 44.6664 26.1353 43.806 25.7C42.9456 25.2648 41.8951 25.6092 41.4597 26.4695L41.0602 27.2599C40.1587 27.2089 39.2677 27.4288 38.4843 27.8174C37.1984 28.4554 36.0898 29.5844 35.3716 31.0037C34.6535 32.423 34.4007 33.985 34.6484 35.3989C34.8962 36.8132 35.6804 38.193 37.1171 38.92C37.6345 39.1818 38.1702 39.3247 38.7037 39.3713V55H16.8783V42.1321C17.6646 42.2299 18.4638 42.2068 19.2476 42.0596L19.3135 42.0486C19.6438 42.0011 19.9801 42.0563 20.2772 42.2066C20.594 42.3669 20.8503 42.6275 21.0058 42.9491C21.5236 44.0256 22.2845 44.9665 23.229 45.6975C24.1744 46.4294 25.2775 46.9308 26.4505 47.1613V47.1605C27.6008 47.4068 28.7943 47.3645 29.9247 47.0366C30.9959 46.7256 31.9787 46.1678 32.7949 45.4096L32.9561 45.2553L32.9768 45.2346C34.0848 44.1017 34.7726 42.6253 34.9283 41.0514L34.9417 40.8985C35.0667 39.2674 34.6134 37.6442 33.6589 36.3163L33.6566 36.3134C33.5131 36.1146 33.4189 35.8828 33.3826 35.6373C33.3466 35.3924 33.3696 35.1419 33.4503 34.9067H33.4497C33.8656 33.7491 34.0135 32.512 33.8802 31.2893C33.7458 30.0561 33.3296 28.8703 32.6631 27.8245C31.8076 26.465 30.5992 25.3636 29.1662 24.6385C27.7331 23.9134 26.1299 23.5925 24.5277 23.7087C23.3677 23.786 22.2389 24.1132 21.2181 24.6664L21.0155 24.7801C19.9515 25.3968 19.042 26.2484 18.3558 27.2692L18.3004 27.3443C18.1663 27.5148 17.9983 27.6556 17.8067 27.7572C17.5879 27.8731 17.3453 27.9341 17.1 27.9362L17.0966 27.9365C15.5124 27.9536 13.9833 28.5132 12.7619 29.5183L12.6448 29.6169C11.4048 30.6838 10.5797 32.1542 10.3151 33.7685L10.3105 33.7973C10.1376 34.9753 10.2615 36.1776 10.6711 37.2947C10.8137 37.6834 10.9902 38.0571 11.1963 38.4127H0V16.5873H12.8633C12.2016 17.1849 11.6336 17.9288 11.2048 18.7761C10.4867 20.1954 10.2342 21.7574 10.4819 23.1713C10.7297 24.5856 11.5138 25.9657 12.9506 26.6926C14.3873 27.4195 15.9635 27.2338 17.2497 26.5957C18.5357 25.9578 19.6443 24.8288 20.3624 23.4094C21.0805 21.9901 21.3334 20.4282 21.0857 19.0142C20.9347 18.153 20.5844 17.3049 20.0095 16.6089L20.409 15.8186C20.8443 14.9582 20.4999 13.9077 19.6394 13.4724C18.779 13.037 17.7286 13.3818 17.2932 14.2422L16.8934 15.0322C16.8883 15.032 16.8833 15.0317 16.8783 15.0314V0H38.7037ZM30.7778 8.95552C29.9174 8.52026 28.8669 8.86498 28.4316 9.72537L28.032 10.5154C27.1306 10.4645 26.2395 10.6846 25.4561 11.0733C24.1703 11.7112 23.0616 12.84 22.3435 14.2593C21.6254 15.6785 21.3728 17.2403 21.6205 18.6542C21.8683 20.0685 22.6522 21.4485 24.0889 22.1755C25.5257 22.9025 27.1021 22.7167 28.3884 22.0786C29.6742 21.4406 30.7829 20.3119 31.501 18.8926C32.2191 17.4733 32.4717 15.9113 32.224 14.4974C32.0731 13.6361 31.7228 12.7881 31.1478 12.0921L31.5476 11.3017C31.9829 10.4413 31.6382 9.39085 30.7778 8.95552Z" fill="#39595B"/>
<path d="M24.7727 27.1919C25.7464 27.12 26.7201 27.3145 27.5895 27.7543C28.459 28.1943 29.1924 28.8636 29.7112 29.6908C29.7135 29.6943 29.7158 29.698 29.7181 29.7016C30.0957 30.2941 30.3325 30.967 30.4089 31.6679C30.4853 32.3687 30.3995 33.0789 30.158 33.743L30.1472 33.7734C29.8856 34.5359 29.8102 35.35 29.9278 36.1475L29.9281 36.1483C30.0459 36.9453 30.3529 37.7033 30.8252 38.3576C31.2967 39.0149 31.5221 39.82 31.4598 40.6316C31.3977 41.4401 31.0537 42.2021 30.4885 42.784C30.0573 43.2063 29.5293 43.5152 28.9516 43.6829C28.4047 43.8416 27.8298 43.8692 27.2732 43.765L27.124 43.7346C26.4839 43.6088 25.8821 43.3355 25.3666 42.9364L25.3663 42.9361C24.8507 42.537 24.4346 42.0227 24.1514 41.4333C24.1508 41.432 24.1503 41.4306 24.1497 41.4293C23.6614 40.4192 22.8551 39.5974 21.8538 39.0908C20.8525 38.5842 19.7127 38.4212 18.6096 38.6261C18.6082 38.6264 18.6067 38.627 18.6053 38.6273C18.0318 38.7353 17.4438 38.7219 16.8783 38.5906V38.4127H16.3023C15.8194 38.2243 15.3745 37.9477 14.9908 37.5954C14.9812 37.5866 14.9715 37.5778 14.9618 37.5692C14.5071 37.1701 14.1589 36.6627 13.9498 36.0926C13.7427 35.5281 13.6784 34.9199 13.7631 34.3227C13.8969 33.5222 14.3073 32.7933 14.9223 32.2641C15.5392 31.7332 16.3214 31.4379 17.1304 31.4283L17.2816 31.4246C17.9856 31.3972 18.6758 31.222 19.3075 30.9111L19.4419 30.8423H19.4425C20.1102 30.4883 20.6891 29.9888 21.1374 29.3819L21.2255 29.2588L21.2434 29.2327C21.6353 28.6447 22.1569 28.1551 22.7669 27.8015C23.377 27.4479 24.0591 27.2398 24.7602 27.1931C24.7643 27.1928 24.7685 27.1922 24.7727 27.1919Z" fill="#39595B"/>
<path d="M40.0365 30.946C40.5835 30.6747 40.9755 30.7195 41.2071 30.8366C41.4386 30.9538 41.7073 31.243 41.8127 31.8446C41.9182 32.4466 41.8247 33.2479 41.4134 34.0607C41.0022 34.8735 40.4121 35.4234 39.8646 35.695C39.3175 35.9664 38.9253 35.9213 38.6938 35.8042C38.4622 35.687 38.1938 35.3977 38.0884 34.7962C37.983 34.1942 38.0762 33.3932 38.4874 32.5804C38.8987 31.7675 39.4891 31.2176 40.0365 30.946Z" fill="#39595B"/>
<path d="M37.0776 19.2964C37.6247 19.025 38.0168 19.0699 38.2484 19.187C38.4799 19.3042 38.7486 19.5935 38.854 20.195C38.9595 20.7971 38.8657 21.5984 38.4545 22.4111C38.0432 23.2238 37.4534 23.7738 36.9059 24.0454C36.3588 24.3169 35.9666 24.2714 35.7351 24.1543C35.5035 24.0371 35.2349 23.7481 35.1295 23.1466C35.0241 22.5446 35.1176 21.7435 35.5288 20.9308C35.94 20.118 36.5301 19.5681 37.0776 19.2964Z" fill="#39595B"/>
<path d="M15.8695 18.7181C16.4166 18.4467 16.809 18.4918 17.0406 18.609C17.2721 18.7262 17.5408 19.0155 17.6462 19.617C17.7516 20.219 17.6579 21.0203 17.2466 21.8331C16.8354 22.6458 16.2455 23.1958 15.6981 23.4674C15.1509 23.7389 14.7585 23.6937 14.527 23.5765C14.2954 23.4593 14.0268 23.1701 13.9214 22.5685C13.8159 21.9666 13.9097 21.1655 14.3209 20.3528C14.7322 19.54 15.322 18.9897 15.8695 18.7181Z" fill="#39595B"/>
<path d="M61.1466 21.3721V5H62.9382C63.8619 5 64.5705 5.28846 65.0642 5.86538C65.5738 6.42672 65.8286 7.25312 65.8286 8.34459V10.356C65.8286 11.0109 65.7092 11.5722 65.4703 12.04C65.2473 12.5078 64.9368 12.8508 64.5387 13.0691C64.9687 13.2718 65.3111 13.6149 65.5659 14.0982C65.8207 14.566 65.9481 15.1429 65.9481 15.829V18.0275C65.9481 19.119 65.6933 19.9532 65.1836 20.5301C64.69 21.0915 63.9893 21.3721 63.0815 21.3721H61.1466ZM62.9382 12.5078C63.4637 12.5078 63.8539 12.3441 64.1087 12.0166C64.3635 11.6736 64.4909 11.1201 64.4909 10.356V8.34459C64.4909 7.56497 64.3635 7.01143 64.1087 6.68399C63.8539 6.34096 63.4637 6.16944 62.9382 6.16944H62.4843V12.5078H62.9382ZM63.0815 20.2027C63.5911 20.2027 63.9733 20.0312 64.2281 19.6882C64.4829 19.3451 64.6103 18.7916 64.6103 18.0275V15.829C64.6103 15.065 64.4829 14.5192 64.2281 14.1918C63.9733 13.8488 63.5911 13.6772 63.0815 13.6772H62.4843V20.2027H63.0815Z" fill="#39595B"/>
<path d="M71.9448 21.3721H68.075V5H71.897V6.23961H69.4127V12.461H71.6104V13.7006H69.4127V20.1325H71.9448V21.3721Z" fill="#39595B"/>
<path d="M75.6803 21.3721H74.3426V6.23961H72.6465V5H77.3763V6.23961H75.6803V21.3721Z" fill="#39595B"/>
<path d="M82.6757 21.3721H78.8058V5H82.6279V6.23961H80.1436V12.461H82.3412V13.7006H80.1436V20.1325H82.6757V21.3721Z" fill="#39595B"/>
<path d="M84.4045 21.3721V5H86.2678C87.1755 5 87.8762 5.28846 88.3699 5.86538C88.8795 6.42672 89.1343 7.25312 89.1343 8.34459V11.4085C89.1343 12.5156 88.8795 13.3498 88.3699 13.9111C87.8762 14.4725 87.1755 14.7531 86.2678 14.7531H85.7423V21.3721H84.4045ZM86.2678 13.5837C86.7774 13.5837 87.1596 13.42 87.4144 13.0925C87.6692 12.7495 87.7966 12.1881 87.7966 11.4085V8.34459C87.7966 7.56497 87.6692 7.01143 87.4144 6.68399C87.1596 6.34096 86.7774 6.16944 86.2678 6.16944H85.7423V13.5837H86.2678Z" fill="#39595B"/>
<path d="M91.2629 21.3721V5H92.6007V13.1861C92.6007 14.3867 92.537 16.2032 92.4096 18.6357H92.4573L95.2283 5H96.7571V21.3721H95.4194V13.1861C95.4194 11.736 95.4752 9.91944 95.5866 7.73649H95.5389L92.7679 21.3721H91.2629Z" fill="#39595B"/>
<path d="M100.555 21.3721H99.2178V5H100.555V12.4376H102.801V5H104.139V21.3721H102.801V13.7006H100.555V21.3721Z" fill="#39595B"/>
<path d="M107.09 21.3721H105.777L107.974 5H109.646L111.629 21.3721H110.315L109.861 17.4428H107.568L107.09 21.3721ZM107.712 16.1798H109.718L109.073 10.356C108.93 8.93711 108.842 7.86902 108.81 7.15177H108.715C108.683 7.86902 108.579 8.92931 108.404 10.3326L107.712 16.1798Z" fill="#39595B"/>
<path d="M113.284 21.3721V5H115.148C116.055 5 116.756 5.28846 117.25 5.86538C117.759 6.42672 118.014 7.25312 118.014 8.34459V11.4085C118.014 12.5156 117.759 13.3498 117.25 13.9111C116.756 14.4725 116.055 14.7531 115.148 14.7531H114.622V21.3721H113.284ZM115.148 13.5837C115.657 13.5837 116.04 13.42 116.294 13.0925C116.549 12.7495 116.677 12.1881 116.677 11.4085V8.34459C116.677 7.56497 116.549 7.01143 116.294 6.68399C116.04 6.34096 115.657 6.16944 115.148 6.16944H114.622V13.5837H115.148Z" fill="#39595B"/>
<path d="M121.481 21.3721H120.143V5H121.481V12.4376H123.726V5H125.064V21.3721H123.726V13.7006H121.481V21.3721Z" fill="#39595B"/>
<path d="M128.016 21.3721H126.702L128.899 5H130.572L132.554 21.3721H131.24L130.787 17.4428H128.493L128.016 21.3721ZM128.637 16.1798H130.643L129.998 10.356C129.855 8.93711 129.767 7.86902 129.736 7.15177H129.64C129.608 7.86902 129.505 8.92931 129.329 10.3326L128.637 16.1798Z" fill="#39595B"/>
<path d="M138.372 5V21.3721H137.034V14.4257C136.604 14.4257 136.286 14.4179 136.078 14.4023L134.645 21.3721H133.26L134.812 13.9111C134.478 13.6772 134.215 13.303 134.024 12.7885C133.833 12.2739 133.737 11.7048 133.737 11.0811V8.34459C133.737 7.25312 133.984 6.42672 134.478 5.86538C134.988 5.28846 135.696 5 136.604 5H138.372ZM137.034 13.2328V6.16944H136.604C136.094 6.16944 135.712 6.34096 135.457 6.68399C135.203 7.01143 135.075 7.56497 135.075 8.34459V11.0811C135.075 11.8607 135.195 12.4142 135.434 12.7417C135.688 13.0691 136.078 13.2328 136.604 13.2328H137.034Z" fill="#39595B"/>
<path d="M145.835 21.3721H144.497V5H145.835V12.6247H146.671L148.606 5H149.92L147.865 13.0691L150.135 21.3721H148.749L146.671 13.724H145.835V21.3721Z" fill="#39595B"/>
<path d="M150.442 21.4657V20.1325H150.61C150.896 20.1325 151.127 20 151.302 19.7349C151.477 19.4543 151.605 18.9319 151.684 18.1679C151.78 17.4038 151.828 16.289 151.828 14.8233V5H156.343V21.3721H155.005V6.26299H153.166V15.8758C153.166 17.3727 153.078 18.5265 152.903 19.3373C152.728 20.1325 152.457 20.6861 152.091 20.9979C151.74 21.3098 151.247 21.4657 150.61 21.4657H150.442Z" fill="#39595B"/>
<path d="M158.821 21.3721V5H160.158V13.1861C160.158 14.3867 160.095 16.2032 159.967 18.6357H160.015L162.786 5H164.315V21.3721H162.977V13.1861C162.977 11.736 163.033 9.91944 163.144 7.73649H163.096L160.326 21.3721H158.821Z" fill="#39595B"/>
<path d="M168.113 21.3721H166.775V5H168.113V12.4376H170.359V5H171.696V21.3721H170.359V13.7006H168.113V21.3721Z" fill="#39595B"/>
<path d="M174.17 21.3721V5H175.508V13.1861C175.508 14.3867 175.444 16.2032 175.317 18.6357H175.365L178.136 5H179.665V21.3721H178.327V13.1861C178.327 11.736 178.383 9.91944 178.494 7.73649H178.446L175.675 21.3721H174.17Z" fill="#39595B"/>
<path d="M183.463 21.3721H182.125V5H183.463V12.6247H184.299L186.234 5H187.548L185.493 13.0691L187.763 21.3721H186.377L184.299 13.724H183.463V21.3721Z" fill="#39595B"/>
<path d="M189.461 21.3721H188.147L190.345 5H192.017L194 21.3721H192.686L192.232 17.4428H189.939L189.461 21.3721ZM190.082 16.1798H192.089L191.444 10.356C191.301 8.93711 191.213 7.86902 191.181 7.15177H191.086C191.054 7.86902 190.95 8.92931 190.775 10.3326L190.082 16.1798Z" fill="#39595B"/>
<path d="M60 50V46.4449H60.43C61.1625 45.0416 61.5288 40.6055 61.5288 33.1367V31.3124H65.8047V46.4449H66.7125V50H65.3748V47.6845H61.3377V50H60ZM64.467 46.4449V32.552H62.8426V33.277C62.8426 36.988 62.7391 39.9584 62.5321 42.1881C62.3251 44.4179 62.0623 45.8368 61.7438 46.4449H64.467Z" fill="#39595B"/>
<path d="M70.5093 47.8716C69.7131 47.8716 69.0999 47.6143 68.67 47.0998C68.2559 46.5852 68.0489 45.8134 68.0489 44.7843V34.236C68.0489 33.1913 68.2639 32.4116 68.6938 31.8971C69.1238 31.3825 69.729 31.1253 70.5093 31.1253C71.2897 31.1253 71.8948 31.3903 72.3248 31.9205C72.7548 32.435 72.9698 33.2069 72.9698 34.236V44.7843C72.9698 45.7978 72.7548 46.5696 72.3248 47.0998C71.8948 47.6143 71.2897 47.8716 70.5093 47.8716ZM70.5093 46.7022C70.8915 46.7022 71.1702 46.5618 71.3454 46.2812C71.5365 46.0005 71.632 45.5249 71.632 44.8545V34.1424C71.632 33.4875 71.5365 33.0198 71.3454 32.7391C71.1543 32.4428 70.8756 32.2947 70.5093 32.2947C70.143 32.2947 69.8643 32.4428 69.6732 32.7391C69.4821 33.0198 69.3866 33.4875 69.3866 34.1424V44.8545C69.3866 45.5249 69.4742 46.0005 69.6494 46.2812C69.8405 46.5618 70.1271 46.7022 70.5093 46.7022Z" fill="#39595B"/>
<path d="M76.6677 47.6845H75.33V31.3124H76.6677V38.9371H77.5038L79.4387 31.3124H80.7525L78.6982 39.3815L80.9675 47.6845H79.582L77.5038 40.0364H76.6677V47.6845Z" fill="#39595B"/>
<path d="M84.4282 47.6845H83.0905V32.552H81.3945V31.3124H86.1243V32.552H84.4282V47.6845Z" fill="#39595B"/>
<path d="M89.6615 47.8716C88.8653 47.8716 88.2522 47.6143 87.8222 47.0998C87.4081 46.5852 87.2011 45.8134 87.2011 44.7843V34.236C87.2011 33.1913 87.4161 32.4116 87.8461 31.8971C88.276 31.3825 88.8812 31.1253 89.6615 31.1253C90.4419 31.1253 91.047 31.3903 91.477 31.9205C91.907 32.435 92.122 33.2069 92.122 34.236V44.7843C92.122 45.7978 91.907 46.5696 91.477 47.0998C91.047 47.6143 90.4419 47.8716 89.6615 47.8716ZM89.6615 46.7022C90.0437 46.7022 90.3224 46.5618 90.4976 46.2812C90.6887 46.0005 90.7843 45.5249 90.7843 44.8545V34.1424C90.7843 33.4875 90.6887 33.0198 90.4976 32.7391C90.3065 32.4428 90.0278 32.2947 89.6615 32.2947C89.2953 32.2947 89.0166 32.4428 88.8255 32.7391C88.6344 33.0198 88.5388 33.4875 88.5388 34.1424V44.8545C88.5388 45.5249 88.6264 46.0005 88.8016 46.2812C88.9927 46.5618 89.2793 46.7022 89.6615 46.7022Z" fill="#39595B"/>
<path d="M94.4822 47.6845V31.3124H96.3454C97.2532 31.3124 97.9539 31.6008 98.4476 32.1778C98.9572 32.7391 99.212 33.5655 99.212 34.657V37.7209C99.212 38.828 98.9572 39.6622 98.4476 40.2235C97.9539 40.7848 97.2532 41.0655 96.3454 41.0655H95.8199V47.6845H94.4822ZM96.3454 39.8961C96.8551 39.8961 97.2373 39.7323 97.4921 39.4049C97.7469 39.0618 97.8743 38.5005 97.8743 37.7209V34.657C97.8743 33.8773 97.7469 33.3238 97.4921 32.9964C97.2373 32.6533 96.8551 32.4818 96.3454 32.4818H95.8199V39.8961H96.3454Z" fill="#39595B"/>
<path d="M101.352 47.6845H100.038L102.236 31.3124H103.908L105.89 47.6845H104.577L104.123 43.7552H101.83L101.352 47.6845ZM101.973 42.4922H103.979L103.334 36.6684C103.191 35.2495 103.104 34.1814 103.072 33.4641H102.976C102.944 34.1814 102.841 35.2417 102.666 36.645L101.973 42.4922Z" fill="#39595B"/>
<path d="M110.742 47.6845V31.3124H112.079V39.4984C112.079 40.6991 112.016 42.5156 111.888 44.948H111.936L114.707 31.3124H116.236V47.6845H114.898V39.4984C114.898 38.0483 114.954 36.2318 115.065 34.0489H115.018L112.247 47.6845H110.742Z" fill="#39595B"/>
<path d="M118.697 47.6845V31.3124H120.488C121.412 31.3124 122.12 31.6008 122.614 32.1778C123.124 32.7391 123.379 33.5655 123.379 34.657V36.6684C123.379 37.3233 123.259 37.8846 123.02 38.3524C122.797 38.8202 122.487 39.1632 122.089 39.3815C122.519 39.5842 122.861 39.9272 123.116 40.4106C123.371 40.8784 123.498 41.4553 123.498 42.1414V44.3399C123.498 45.4314 123.243 46.2656 122.734 46.8425C122.24 47.4038 121.539 47.6845 120.631 47.6845H118.697ZM120.488 38.8202C121.014 38.8202 121.404 38.6564 121.659 38.329C121.913 37.986 122.041 37.4324 122.041 36.6684V34.657C122.041 33.8773 121.913 33.3238 121.659 32.9964C121.404 32.6533 121.014 32.4818 120.488 32.4818H120.034V38.8202H120.488ZM120.631 46.5151C121.141 46.5151 121.523 46.3436 121.778 46.0005C122.033 45.6575 122.16 45.1039 122.16 44.3399V42.1414C122.16 41.3773 122.033 40.8316 121.778 40.5042C121.523 40.1611 121.141 39.9896 120.631 39.9896H120.034V46.5151H120.631Z" fill="#39595B"/>
<path d="M125.869 47.6845H124.556L126.753 31.3124H128.425L130.408 47.6845H129.094L128.64 43.7552H126.347L125.869 47.6845ZM126.491 42.4922H128.497L127.852 36.6684C127.709 35.2495 127.621 34.1814 127.589 33.4641H127.494C127.462 34.1814 127.358 35.2417 127.183 36.645L126.491 42.4922Z" fill="#39595B"/>
<path d="M133.401 47.6845H132.063V31.3124H133.401V38.75H135.647V31.3124H136.984V47.6845H135.647V40.013H133.401V47.6845Z" fill="#39595B"/>
<path d="M141.799 47.8716C141.003 47.8716 140.39 47.6143 139.96 47.0998C139.546 46.5852 139.339 45.8134 139.339 44.7843V34.236C139.339 33.1913 139.554 32.4116 139.984 31.8971C140.414 31.3825 141.019 31.1253 141.799 31.1253C142.58 31.1253 143.185 31.3903 143.615 31.9205C144.045 32.435 144.26 33.2069 144.26 34.236V44.7843C144.26 45.7978 144.045 46.5696 143.615 47.0998C143.185 47.6143 142.58 47.8716 141.799 47.8716ZM141.799 46.7022C142.182 46.7022 142.46 46.5618 142.635 46.2812C142.827 46.0005 142.922 45.5249 142.922 44.8545V34.1424C142.922 33.4875 142.827 33.0198 142.635 32.7391C142.444 32.4428 142.166 32.2947 141.799 32.2947C141.433 32.2947 141.154 32.4428 140.963 32.7391C140.772 33.0198 140.677 33.4875 140.677 34.1424V44.8545C140.677 45.5249 140.764 46.0005 140.939 46.2812C141.131 46.5618 141.417 46.7022 141.799 46.7022Z" fill="#39595B"/>
<path d="M146.62 47.6845V31.3124H148.412C149.335 31.3124 150.044 31.6008 150.538 32.1778C151.047 32.7391 151.302 33.5655 151.302 34.657V36.6684C151.302 37.3233 151.183 37.8846 150.944 38.3524C150.721 38.8202 150.41 39.1632 150.012 39.3815C150.442 39.5842 150.785 39.9272 151.039 40.4106C151.294 40.8784 151.422 41.4553 151.422 42.1414V44.3399C151.422 45.4314 151.167 46.2656 150.657 46.8425C150.163 47.4038 149.463 47.6845 148.555 47.6845H146.62ZM148.412 38.8202C148.937 38.8202 149.327 38.6564 149.582 38.329C149.837 37.986 149.964 37.4324 149.964 36.6684V34.657C149.964 33.8773 149.837 33.3238 149.582 32.9964C149.327 32.6533 148.937 32.4818 148.412 32.4818H147.958V38.8202H148.412ZM148.555 46.5151C149.065 46.5151 149.447 46.3436 149.702 46.0005C149.956 45.6575 150.084 45.1039 150.084 44.3399V42.1414C150.084 41.3773 149.956 40.8316 149.702 40.5042C149.447 40.1611 149.065 39.9896 148.555 39.9896H147.958V46.5151H148.555Z" fill="#39595B"/>
<path d="M153.793 47.6845H152.479L154.677 31.3124H156.349L158.332 47.6845H157.018L156.564 43.7552H154.271L153.793 47.6845ZM154.414 42.4922H156.421L155.776 36.6684C155.632 35.2495 155.545 34.1814 155.513 33.4641H155.417C155.385 34.1814 155.282 35.2417 155.107 36.645L154.414 42.4922Z" fill="#39595B"/>
</svg>
